<?xml version="1.0" encoding="UTF-8"?>
<svg width="116px" height="114px" viewBox="0 0 116 114" version="1.1" xmlns="http://www.w3.org/2000/svg" xmlns:xlink="http://www.w3.org/1999/xlink">
    <!-- Generator: Sketch 64 (93537) - https://sketch.com -->
    <title>logo</title>
    <desc>Created with Sketch.</desc>
    <defs>
        <path d="M55.5,143.55 C60.9,143.55 66.25,142.7 71.55,141 L71.55,141 L98.1,141 L111.6,114.75 L102.3,114.75 C104.1,111.25 105.5,107.5 106.5,103.5 C107.5,99.5 108,95.35 108,91.05 C108,83.85 106.625,77.05 103.875,70.65 C101.125,64.25 97.375,58.675 92.625,53.925 C87.875,49.175 82.3,45.425 75.9,42.675 C69.5,39.925 62.7,38.55 55.5,38.55 C48.3,38.55 41.5,39.925 35.1,42.675 C28.7,45.425 23.125,49.175 18.375,53.925 C13.625,58.675 9.875,64.25 7.125,70.65 C4.375,77.05 3,83.85 3,91.05 C3,98.25 4.375,105.05 7.125,111.45 C9.875,117.85 13.625,123.425 18.375,128.175 C23.125,132.925 28.7,136.675 35.1,139.425 C41.5,142.175 48.3,143.55 55.5,143.55 Z M94.35,129.45 L56.1,129.45 C50.6,129.45 45.475,128.45 40.725,126.45 C35.975,124.45 31.85,121.7 28.35,118.2 C24.85,114.7 22.1,110.625 20.1,105.975 C18.1,101.325 17.1,96.35 17.1,91.05 C17.1,85.75 18.1,80.775 20.1,76.125 C22.1,71.475 24.85,67.4 28.35,63.9 C31.85,60.4 35.925,57.65 40.575,55.65 C45.225,53.65 50.2,52.65 55.5,52.65 C60.8,52.65 65.775,53.65 70.425,55.65 C75.075,57.65 79.15,60.4 82.65,63.9 C86.15,67.4 88.9,71.475 90.9,76.125 C92.9,80.775 93.9,85.75 93.9,91.05 C93.9,94.85 93.35,98.525 92.25,102.075 C91.15,105.625 89.625,108.9 87.675,111.9 C85.725,114.9 83.4,117.6 80.7,120 C78,122.4 75,124.35 71.7,125.85 L71.7,125.85 L96.15,125.85 L94.35,129.45 Z M55.5,125.55 C60.3,125.55 64.775,124.65 68.925,122.85 C73.075,121.05 76.725,118.575 79.875,115.425 C83.025,112.275 85.5,108.625 87.3,104.475 C89.1,100.325 90,95.85 90,91.05 C90,86.25 89.1,81.775 87.3,77.625 C85.5,73.475 83.025,69.825 79.875,66.675 C76.725,63.525 73.075,61.05 68.925,59.25 C64.775,57.45 60.3,56.55 55.5,56.55 C50.7,56.55 46.225,57.45 42.075,59.25 C37.925,61.05 34.275,63.525 31.125,66.675 C27.975,69.825 25.5,73.475 23.7,77.625 C21.9,81.775 21,86.25 21,91.05 C21,95.85 21.9,100.325 23.7,104.475 C25.5,108.625 27.975,112.275 31.125,115.425 C34.275,118.575 37.925,121.05 42.075,122.85 C46.225,124.65 50.7,125.55 55.5,125.55 Z M55.5,112.05 C52.6,112.05 49.875,111.5 47.325,110.4 C44.775,109.3 42.55,107.8 40.65,105.9 C38.75,104 37.25,101.775 36.15,99.225 C35.05,96.675 34.5,93.95 34.5,91.05 C34.5,88.15 35.05,85.425 36.15,82.875 C37.25,80.325 38.75,78.1 40.65,76.2 C42.55,74.3 44.775,72.8 47.325,71.7 C49.875,70.6 52.6,70.05 55.5,70.05 C58.4,70.05 61.125,70.6 63.675,71.7 C66.225,72.8 68.45,74.3 70.35,76.2 C72.25,78.1 73.75,80.325 74.85,82.875 C75.95,85.425 76.5,88.15 76.5,91.05 C76.5,93.95 75.95,96.675 74.85,99.225 C73.75,101.775 72.25,104 70.35,105.9 C68.45,107.8 66.225,109.3 63.675,110.4 C61.125,111.5 58.4,112.05 55.5,112.05 Z" id="path-1"></path>
        <filter x="-6.4%" y="-4.8%" width="112.9%" height="113.3%" filterUnits="objectBoundingBox" id="filter-2">
            <feOffset dx="0" dy="2" in="SourceAlpha" result="shadowOffsetOuter1"></feOffset>
            <feGaussianBlur stdDeviation="2" in="shadowOffsetOuter1" result="shadowBlurOuter1"></feGaussianBlur>
            <feColorMatrix values="0 0 0 0 0   0 0 0 0 0   0 0 0 0 0  0 0 0 0.5 0" type="matrix" in="shadowBlurOuter1"></feColorMatrix>
        </filter>
    </defs>
    <g id="页面-2" stroke="none" stroke-width="1" fill="none" fill-rule="evenodd">
        <g id="画板" transform="translate(-74.000000, -43.000000)" fill-rule="nonzero">
            <g id="logo" transform="translate(75.000000, 7.000000)">
                <g id="Q">
                    <use fill="black" fill-opacity="1" filter="url(#filter-2)" xlink:href="#path-1"></use>
                    <use fill="#676767" xlink:href="#path-1"></use>
                </g>
            </g>
        </g>
    </g>
</svg>