<?xml version="1.0" encoding="UTF-8"?>
<svg width="230px" height="71px" viewBox="0 0 230 71" version="1.1" xmlns="http://www.w3.org/2000/svg" xmlns:xlink="http://www.w3.org/1999/xlink">
    <!-- Generator: Sketch 64 (93537) - https://sketch.com -->
    <title>title</title>
    <desc>Created with Sketch.</desc>
    <g id="页面-2" stroke="none" stroke-width="1" fill="none" fill-rule="evenodd">
        <g id="画板" transform="translate(-17.000000, -221.000000)" fill="#676767" fill-rule="nonzero">
            <g id="title" transform="translate(15.000000, 196.000000)">
                <path d="M37,95.7 C40.6,95.7 44.1666667,95.1333333 47.7,94 L47.7,94 L65.4,94 L74.4,76.5 L68.2,76.5 C69.4,74.1666667 70.3333333,71.6666667 71,69 C71.6666667,66.3333333 72,63.5666667 72,60.7 C72,55.9 71.0833333,51.3666667 69.25,47.1 C67.4166667,42.8333333 64.9166667,39.1166667 61.75,35.95 C58.5833333,32.7833333 54.8666667,30.2833333 50.6,28.45 C46.3333333,26.6166667 41.8,25.7 37,25.7 C32.2,25.7 27.6666667,26.6166667 23.4,28.45 C19.1333333,30.2833333 15.4166667,32.7833333 12.25,35.95 C9.08333333,39.1166667 6.58333333,42.8333333 4.75,47.1 C2.91666667,51.3666667 2,55.9 2,60.7 C2,65.5 2.91666667,70.0333333 4.75,74.3 C6.58333333,78.5666667 9.08333333,82.2833333 12.25,85.45 C15.4166667,88.6166667 19.1333333,91.1166667 23.4,92.95 C27.6666667,94.7833333 32.2,95.7 37,95.7 Z M62.9,86.3 L37.4,86.3 C33.7333333,86.3 30.3166667,85.6333333 27.15,84.3 C23.9833333,82.9666667 21.2333333,81.1333333 18.9,78.8 C16.5666667,76.4666667 14.7333333,73.75 13.4,70.65 C12.0666667,67.55 11.4,64.2333333 11.4,60.7 C11.4,57.1666667 12.0666667,53.85 13.4,50.75 C14.7333333,47.65 16.5666667,44.9333333 18.9,42.6 C21.2333333,40.2666667 23.95,38.4333333 27.05,37.1 C30.15,35.7666667 33.4666667,35.1 37,35.1 C40.5333333,35.1 43.85,35.7666667 46.95,37.1 C50.05,38.4333333 52.7666667,40.2666667 55.1,42.6 C57.4333333,44.9333333 59.2666667,47.65 60.6,50.75 C61.9333333,53.85 62.6,57.1666667 62.6,60.7 C62.6,63.2333333 62.2333333,65.6833333 61.5,68.05 C60.7666667,70.4166667 59.75,72.6 58.45,74.6 C57.15,76.6 55.6,78.4 53.8,80 C52,81.6 50,82.9 47.8,83.9 L47.8,83.9 L64.1,83.9 L62.9,86.3 Z M37,83.7 C40.2,83.7 43.1833333,83.1 45.95,81.9 C48.7166667,80.7 51.15,79.05 53.25,76.95 C55.35,74.85 57,72.4166667 58.2,69.65 C59.4,66.8833333 60,63.9 60,60.7 C60,57.5 59.4,54.5166667 58.2,51.75 C57,48.9833333 55.35,46.55 53.25,44.45 C51.15,42.35 48.7166667,40.7 45.95,39.5 C43.1833333,38.3 40.2,37.7 37,37.7 C33.8,37.7 30.8166667,38.3 28.05,39.5 C25.2833333,40.7 22.85,42.35 20.75,44.45 C18.65,46.55 17,48.9833333 15.8,51.75 C14.6,54.5166667 14,57.5 14,60.7 C14,63.9 14.6,66.8833333 15.8,69.65 C17,72.4166667 18.65,74.85 20.75,76.95 C22.85,79.05 25.2833333,80.7 28.05,81.9 C30.8166667,83.1 33.8,83.7 37,83.7 Z M37,74.7 C35.0666667,74.7 33.25,74.3333333 31.55,73.6 C29.85,72.8666667 28.3666667,71.8666667 27.1,70.6 C25.8333333,69.3333333 24.8333333,67.85 24.1,66.15 C23.3666667,64.45 23,62.6333333 23,60.7 C23,58.7666667 23.3666667,56.95 24.1,55.25 C24.8333333,53.55 25.8333333,52.0666667 27.1,50.8 C28.3666667,49.5333333 29.85,48.5333333 31.55,47.8 C33.25,47.0666667 35.0666667,46.7 37,46.7 C38.9333333,46.7 40.75,47.0666667 42.45,47.8 C44.15,48.5333333 45.6333333,49.5333333 46.9,50.8 C48.1666667,52.0666667 49.1666667,53.55 49.9,55.25 C50.6333333,56.95 51,58.7666667 51,60.7 C51,62.6333333 50.6333333,64.45 49.9,66.15 C49.1666667,67.85 48.1666667,69.3333333 46.9,70.6 C45.6333333,71.8666667 44.15,72.8666667 42.45,73.6 C40.75,74.3333333 38.9333333,74.7 37,74.7 Z M92.48,95.02 C95,95.02 97.28,94.7 99.32,94.06 C101.36,93.42 103.11,92.46 104.57,91.18 C106.03,89.9 107.15,88.28 107.93,86.32 C108.71,84.36 109.1,82.06 109.1,79.42 L109.1,79.42 L109.1,53.98 L96.26,53.98 L96.26,78.88 C96.26,80.28 95.97,81.35 95.39,82.09 C94.81,82.83 93.84,83.2 92.48,83.2 C91.12,83.2 90.15,82.83 89.57,82.09 C88.99,81.35 88.7,80.28 88.7,78.88 L88.7,78.88 L88.7,53.98 L75.92,53.98 L75.92,79.42 C75.92,82.06 76.31,84.36 77.09,86.32 C77.87,88.28 78.98,89.9 80.42,91.18 C81.86,92.46 83.6,93.42 85.64,94.06 C87.68,94.7 89.96,95.02 92.48,95.02 Z M92.48,89.38 C89.08,89.38 86.47,88.49 84.65,86.71 C82.83,84.93 81.92,82.36 81.92,79 L81.92,79 L81.92,58.78 L83.48,58.78 L83.48,79 C83.48,84.88 86.48,87.82 92.48,87.82 C98.48,87.82 101.48,84.88 101.48,79 L101.48,79 L101.48,58.78 L103.1,58.78 L103.1,79 C103.1,82.36 102.18,84.93 100.34,86.71 C98.5,88.49 95.88,89.38 92.48,89.38 Z M125.66,94 L125.66,78.64 L136.64,94 L147.2,94 L147.2,53.98 L134.66,53.98 L134.66,69.4 L123.62,53.98 L113.12,53.98 L113.12,94 L125.66,94 Z M120.26,89.2 L118.7,89.2 L118.7,58.78 L120.26,58.78 L140.06,86.5 L140.06,58.78 L141.62,58.78 L141.62,89.2 L140.06,89.2 L120.26,61.48 L120.26,89.2 Z M164.96,94 L164.96,53.98 L151.4,53.98 L151.4,94 L164.96,94 Z M158.96,89.2 L157.4,89.2 L157.4,58.78 L158.96,58.78 L158.96,89.2 Z M187.64,94 L187.64,64.48 L195.02,64.48 L195.02,53.98 L167.06,53.98 L167.06,64.48 L174.44,64.48 L174.44,94 L187.64,94 Z M181.82,89.2 L180.26,89.2 L180.26,60.22 L171.68,60.22 L171.68,58.78 L190.4,58.78 L190.4,60.22 L181.82,60.22 L181.82,89.2 Z M219.02,94 L219.02,76.78 L231.44,53.98 L217.22,53.98 L212.66,62.44 L208.04,53.98 L193.82,53.98 L206.24,76.78 L206.24,94 L219.02,94 Z M213.44,89.2 L211.82,89.2 L211.82,74.86 L203.12,58.78 L204.92,58.78 L212.66,73 L220.34,58.78 L222.2,58.78 L213.44,74.86 L213.44,89.2 Z" id="Qunity"></path>
            </g>
        </g>
    </g>
</svg>